<svg width="1300" height="1300" viewBox="0 0 1300 1300" fill="none" xmlns="http://www.w3.org/2000/svg">
<path d="M650 1300C290.71 1300 0 1008.86 0 650C0 290.71 291.141 0 650 0C1009.29 0 1300 291.141 1300 650C1300.43 1009.29 1009.29 1300 650 1300Z" fill="#155DFC"/>
<mask id="mask0_26_635" style="mask-type:alpha" maskUnits="userSpaceOnUse" x="0" y="0" width="1301" height="1300">
<path d="M650 1300C290.71 1300 0 1008.86 0 650C0 290.71 291.141 0 650 0C1009.29 0 1300 291.141 1300 650C1300.43 1009.29 1009.29 1300 650 1300Z" fill="#F7C0B5"/>
</mask>
<g mask="url(#mask0_26_635)">
<path d="M1014 1197.33C1010.97 1199.5 1007.5 1201.66 1004.47 1203.83C1001 1206 997.967 1208.16 994.5 1209.9C991.467 1211.63 988.867 1213.36 985.833 1215.1C985.4 1215.53 984.967 1215.53 984.534 1215.96C974.567 1222.03 964.167 1227.66 953.767 1232.86C950.733 1234.6 947.267 1236.33 944.233 1237.63C944.233 1237.63 943.8 1238.06 943.367 1238.06C939.9 1239.8 936.433 1241.53 932.967 1243.26C926.033 1246.73 918.667 1249.76 911.733 1252.8C908.267 1254.53 904.367 1255.83 900.9 1257.13C897.433 1258.43 893.533 1260.16 890.067 1261.46C886.6 1262.76 882.7 1264.5 879.233 1265.8C879.233 1265.8 879.233 1265.8 878.8 1265.8C875.333 1267.1 871.433 1268.4 867.967 1269.7C860.167 1272.3 851.933 1274.9 844.133 1277.5C841.533 1278.36 838.5 1279.23 835.9 1280.1C827.667 1282.7 819.433 1284.86 811.2 1286.6C808.167 1287.46 805.133 1287.9 801.667 1288.76C793.867 1290.5 785.633 1292.23 777.833 1293.96C776.1 1294.4 774.8 1294.4 773.067 1294.83C770.467 1295.26 767.433 1295.7 764.833 1296.13C760.933 1296.56 757.467 1297.43 753.567 1297.86C751.833 1298.3 750.1 1298.3 748.367 1298.73C746.2 1299.16 743.6 1299.6 741 1299.6C734.067 1300.46 726.7 1301.33 719.767 1302.2C717.6 1302.63 715 1302.63 712.833 1303.06H712.4C709.367 1303.5 706.333 1303.5 703.3 1303.93C700.267 1304.36 697.233 1304.36 694.2 1304.36C692.467 1304.36 690.3 1304.8 688.567 1304.8C685.1 1304.8 682.067 1305.23 679.033 1305.23C674.7 1305.23 670.8 1305.66 666.467 1305.66C662.133 1305.66 658.233 1305.66 653.9 1305.66C650.867 1305.66 647.833 1305.66 644.8 1305.66C462.367 1303.06 297.7 1225.5 180.7 1102.43C180.7 1102.43 180.7 1102 180.267 1102C193.7 1075.56 243.534 1027.9 295.534 988.465C361.4 938.632 454.567 907.865 454.567 907.865C454.567 907.865 515.667 897.898 742.3 945.132C915.2 981.532 988.867 1129.3 1014 1197.33Z" fill="#F7D3B5"/>
<path d="M790.4 1065.16C781.3 1109.8 722.367 1136.23 623.134 1096.36C501.367 1046.96 454.567 907.865 454.567 907.865C448.067 808.198 432.9 722.832 432.9 722.832C573.734 710.698 740.134 875.365 740.134 875.365L759.2 956.832C760.934 963.765 764.4 969.832 769.6 974.165C778.7 989.765 796.467 1036.56 790.4 1065.16Z" fill="#F7D3B5"/>
<path d="M769.6 974.599C686.833 970.265 625.733 958.132 560.3 840.699C615.767 889.665 681.2 908.299 750.1 916.965L759.2 956.832C760.933 964.199 764.4 970.265 769.6 974.599Z" fill="#EFBDA5"/>
<path d="M940.767 452.432C948.567 488.832 952.467 518.298 931.233 615.365C910 712.432 950.733 809.498 848.467 898.332C779.567 958.132 659.1 969.398 562.9 903.965C530.4 881.865 500.5 851.098 476.233 810.798C457.167 779.165 435.067 749.265 410.367 721.965C376.133 684.698 334.967 609.732 355.333 477.132C388.267 261.332 601.9 236.632 728 260.465C854.1 284.298 919.533 356.232 940.767 452.432Z" fill="#F7D3B5"/>
<path d="M526.067 621.865C526.067 621.865 512.633 556.865 449.367 564.665C394.767 571.598 375.7 702.465 499.633 738.865" fill="#F7D3B5"/>
<path d="M495.734 679.498C495.734 679.498 480.134 669.532 481.867 652.198C484.467 631.832 481.867 619.265 472.334 615.365C448.501 605.398 443.734 633.132 444.601 636.598" stroke="#423232" stroke-width="13" stroke-miterlimit="10" stroke-linecap="round" stroke-linejoin="round"/>
<path d="M826.367 721.532C826.367 721.532 842.833 722.398 858.433 703.765C867.1 693.365 874.467 680.365 869.7 676.465C864.933 672.132 786.5 684.265 781.3 694.665C776.1 705.065 806.433 721.532 826.367 721.532Z" fill="#EFBDA5"/>
<path d="M839.367 575.932C839.367 575.932 840.234 617.098 866.667 663.032C878.367 683.398 860.601 716.765 822.034 722.398" stroke="#423232" stroke-width="13" stroke-miterlimit="10" stroke-linecap="round" stroke-linejoin="round"/>
<path opacity="0.42" d="M604.501 743.632C629.151 743.632 649.134 727.141 649.134 706.799C649.134 686.456 629.151 669.965 604.501 669.965C579.85 669.965 559.867 686.456 559.867 706.799C559.867 727.141 579.85 743.632 604.501 743.632Z" fill="#ED938A"/>
<path opacity="0.42" d="M924.3 670.832C923 695.098 923.434 718.932 921.7 742.765C902.634 738.432 888.767 724.132 888.767 707.232C888.767 689.032 903.933 674.298 924.3 670.832Z" fill="#ED938A"/>
<path d="M907.837 1029.6C907.837 1029.6 840.67 966.767 774.37 951.6C774.37 951.6 782.17 1063.4 703.303 1055.17C575.903 1041.73 455.87 906.534 455.87 906.534C455.87 906.534 372.237 929.934 304.637 981.5C304.637 981.5 313.737 1114.53 465.837 1180.4C617.937 1246.27 829.837 1213.77 880.103 1171.3C930.37 1128.83 920.403 1043.47 907.837 1029.6Z" fill="white"/>
<path d="M267.37 1010.1C267.37 1010.1 183.303 1056.47 137.37 1188.63C91.4366 1320.8 92.7366 1517.53 92.7366 1517.53H1081.6C1081.6 1517.53 1053.87 1192.97 955.937 1084.63C955.937 1084.63 962.437 1181.7 770.47 1191.67C578.503 1201.63 347.537 1140.53 341.903 1105C336.703 1068.6 267.37 1010.1 267.37 1010.1Z" fill="white"/>
<path d="M996.236 1525.33C724.103 1651 276.036 1537.47 276.036 1537.47C276.036 1537.47 266.936 1426.97 299.87 1228.07C301.17 1218.97 302.47 1209.87 303.336 1201.63C312.87 1111.5 290.77 1049.53 267.37 1010.53C267.37 1000.57 277.77 993.634 289.47 983.667C294.236 979.767 379.603 926.9 383.07 929.5C389.136 938.167 394.77 946.834 399.536 955.934C448.07 1045.63 464.97 1141.83 565.936 1155.7C665.603 1169.57 761.803 1167.4 830.703 1152.23C897.003 1137.5 852.803 1027.43 823.336 973.267C822.036 971.1 822.036 970.234 820.736 969.367C830.703 962.867 946.403 1051.7 955.503 1084.63C974.57 1132.3 979.77 1167.83 985.403 1214.2C1004.04 1366.3 996.236 1525.33 996.236 1525.33Z" fill="#77A0E0"/>
<path d="M401.269 1152.67C416.586 1152.67 429.003 1140.25 429.003 1124.93C429.003 1109.62 416.586 1097.2 401.269 1097.2C385.953 1097.2 373.536 1109.62 373.536 1124.93C373.536 1140.25 385.953 1152.67 401.269 1152.67Z" fill="#647184"/>
<path d="M918.237 1164.37C932.118 1164.37 943.37 1153.11 943.37 1139.23C943.37 1125.35 932.118 1114.1 918.237 1114.1C904.356 1114.1 893.104 1125.35 893.104 1139.23C893.104 1153.11 904.356 1164.37 918.237 1164.37Z" fill="#647184"/>
<path d="M594.97 1203.8C660.836 1207.7 743.17 1209 812.07 1199.03C858.436 1192.53 900.47 1226.77 903.936 1273.13C906.97 1319.07 908.27 1374.97 900.903 1423.93C885.736 1529.67 507.436 1524.47 501.37 1431.3C497.903 1383.2 494.87 1344.2 491.403 1312.13C484.903 1251.9 534.303 1200.33 594.97 1203.8Z" stroke="#647184" stroke-width="13" stroke-miterlimit="10"/>
<path d="M721.07 1054.73C721.07 1054.73 641.77 1150.93 617.504 1143.57C593.237 1136.2 442.437 1056.03 418.604 919.1C418.604 919.1 437.237 888.767 453.704 879.234C453.704 879.234 499.204 959.4 581.537 1007.5C659.97 1053 721.07 1054.73 721.07 1054.73Z" fill="white"/>
<path d="M721.07 1054.73C721.07 1054.73 641.77 1150.93 617.504 1143.57C593.237 1136.2 442.437 1056.03 418.604 919.1" stroke="#D0D6DD" stroke-width="13" stroke-miterlimit="10" stroke-linecap="round" stroke-linejoin="round"/>
<path d="M721.069 1054.73C721.069 1054.73 782.603 1126.67 802.969 1127.53C823.336 1128.4 832.003 1001.87 770.903 937.734C770.903 937.734 761.369 940.334 757.469 941.2C757.036 940.767 787.803 1033.07 721.069 1054.73Z" fill="white"/>
<path d="M721.069 1054.73C721.069 1054.73 782.603 1126.67 802.969 1127.53C823.336 1128.4 832.003 1001.87 770.903 937.734" stroke="#D0D6DD" stroke-width="13" stroke-miterlimit="10" stroke-linecap="round" stroke-linejoin="round"/>
<path d="M715.003 1061.67C715.003 1061.67 702.869 1075.1 707.203 1104.57C711.536 1133.6 710.669 1162.63 710.669 1162.63" stroke="#D0D6DD" stroke-width="13" stroke-miterlimit="10" stroke-linecap="round" stroke-linejoin="round"/>
<path d="M737.103 1126.67C742.608 1126.67 747.07 1122.2 747.07 1116.7C747.07 1111.2 742.608 1106.73 737.103 1106.73C731.599 1106.73 727.137 1111.2 727.137 1116.7C727.137 1122.2 731.599 1126.67 737.103 1126.67Z" fill="#D0D6DD"/>
<path d="M745.802 526.549C755.216 527.849 762.491 517.882 759.068 508.349C757.356 503.149 754.36 498.382 749.653 495.349C735.104 486.249 680.759 485.382 652.088 506.182C626.841 525.249 703.01 520.482 745.802 526.549Z" fill="#423232"/>
<path d="M864.333 531.316C856.631 531.316 851.924 521.349 855.775 513.116C857.915 508.782 860.91 504.882 865.189 502.716C878.455 496.216 913.972 500.116 929.805 522.216C943.926 541.716 899.851 530.882 864.333 531.316Z" fill="#423232"/>
<path d="M730.824 581.149C703.437 567.282 660.218 577.682 660.218 577.682" stroke="#423232" stroke-width="13" stroke-miterlimit="10" stroke-linecap="round" stroke-linejoin="round"/>
<path d="M899.854 589.816C899.854 589.816 888.728 577.683 847.648 587.216" stroke="#423232" stroke-width="13" stroke-miterlimit="10" stroke-linecap="round" stroke-linejoin="round"/>
<path d="M800.016 771.848C800.45 778.781 795.25 790.915 785.716 799.581C736.75 769.681 714.65 785.281 714.65 785.281C697.316 758.848 701.216 722.881 743.25 750.181C772.716 768.815 790.483 771.848 800.016 771.848Z" fill="#423232"/>
<path d="M785.717 799.581C775.317 808.681 759.717 814.315 738.483 805.648C728.517 801.748 720.717 793.948 714.65 785.281C714.65 785.281 736.75 769.681 785.717 799.581Z" fill="#FE9DAB"/>
<path d="M808.25 770.115C808.25 770.115 790.05 780.081 743.25 750.181C687.35 714.215 698.617 789.615 738.05 805.648C779.217 822.548 800.45 785.715 800.017 771.848" stroke="#423232" stroke-width="13" stroke-miterlimit="10" stroke-linecap="round" stroke-linejoin="round"/>
<path d="M714.65 785.281C714.65 785.281 736.75 769.681 785.717 799.581" stroke="#423232" stroke-width="13" stroke-miterlimit="10" stroke-linecap="round" stroke-linejoin="round"/>
<path d="M1025.83 400.553C1025.83 345.953 989 300.453 939.167 286.153C941.767 275.32 942.2 264.053 939.6 252.353C930.933 214.653 897.134 188.22 858.567 190.82C843.4 191.686 829.1 197.32 817.4 205.986C799.2 163.953 757.167 134.486 708.634 134.486C657.067 134.486 613.3 167.42 596.834 213.353C578.634 191.686 551.334 177.82 521 177.82C468.134 177.82 424.8 219.42 422.2 271.853C413.967 269.253 404.867 267.953 395.767 268.386C360.667 270.553 332.067 299.153 329.467 334.253C328.6 345.953 330.767 357.22 335.1 367.62C285.7 372.82 247.134 414.853 247.134 465.553C247.134 503.686 268.8 537.053 300.867 553.52C287.867 566.52 279.634 584.286 279.634 603.786C279.634 640.186 307.367 670.52 342.9 674.42C340.734 681.353 339.867 689.586 342.467 697.82C346.367 712.12 358.067 723.386 372.367 726.42C381.034 728.153 389.267 727.286 396.634 724.253C400.534 729.886 404.434 734.653 407.9 738.986C412.234 744.186 415.7 748.953 419.167 753.72C439.1 782.32 484.6 769.753 486.334 735.086C486.334 734.653 486.334 734.653 486.334 734.22C378 692.62 397.5 571.72 450.367 564.786C505.834 557.853 523.167 607.253 526.2 619.386C585.567 581.253 501.067 443.886 588.167 403.153C665.733 367.186 747.2 421.786 846.867 435.22C883.7 440.42 918.367 404.02 933.967 424.386C937 433.486 939.6 442.586 941.767 452.12C948.7 482.886 952.167 508.886 940.467 574.753C969.067 559.153 982.933 535.753 985.533 512.786C986.4 504.986 986.4 496.753 985.967 488.953C1010.23 467.72 1025.83 436.086 1025.83 400.553Z" fill="#C1C1C1"/>
<path opacity="0.6" d="M865.083 677.253C865.083 677.253 870.283 706.72 904.516 721.453C913.183 724.92 922.283 719.287 922.283 709.753C921.849 709.753 867.249 680.72 865.083 677.253Z" fill="#B7AEA9"/>
<path opacity="0.6" d="M782.75 606.187C782.75 606.187 810.483 578.453 824.35 575.42L787.516 584.087L782.75 606.187Z" fill="#B7AEA9"/>
<path opacity="0.6" d="M597.716 677.254C597.716 677.254 613.75 713.654 661.85 722.32C709.95 731.42 753.716 696.754 774.083 638.687C774.083 638.687 757.616 692.42 691.75 702.387C626.316 713.22 597.716 677.254 597.716 677.254Z" fill="#B7AEA9"/>
<path opacity="0.29" d="M675.283 482.687C614.183 482.687 564.349 533.82 563.916 596.22C563.916 625.687 574.749 652.554 592.516 672.054L749.816 513.02C730.316 493.954 704.316 482.687 675.283 482.687Z" fill="#DBC3ED"/>
<path opacity="0.23" d="M749.817 513.02L592.517 672.054C612.45 694.154 640.617 707.587 671.817 707.587C732.05 707.587 781.45 657.754 783.183 595.787C784.05 563.287 771.05 533.82 749.817 513.02Z" fill="#C4ADD8"/>
<path opacity="0.29" d="M928.783 482.687C882.416 482.687 843.416 533.82 841.683 596.22C840.816 621.354 846.449 644.32 855.983 662.954L993.349 526.887C979.049 500.02 955.649 482.687 928.783 482.687Z" fill="#DBC3ED"/>
<path opacity="0.23" d="M993.349 526.453L855.982 662.52C870.282 689.82 893.682 707.586 920.982 707.586C966.482 707.586 1005.48 657.753 1008.08 595.786C1008.95 570.22 1003.32 545.953 993.349 526.453Z" fill="#C4ADD8"/>
<path d="M783.182 596.22C781.882 658.187 732.049 708.02 671.816 708.02C611.582 708.02 563.482 658.187 563.482 596.22C563.916 533.82 613.749 482.687 674.849 482.687C735.949 482.687 784.916 533.82 783.182 596.22Z" stroke="#4EC2DD" stroke-width="13" stroke-miterlimit="10" stroke-linecap="round" stroke-linejoin="round"/>
<path d="M1008.08 596.22C1005.48 658.187 966.483 708.02 920.983 708.02C875.483 708.02 839.949 658.187 841.683 596.22C843.416 533.82 882.416 482.687 928.783 482.687C975.149 482.687 1010.68 533.82 1008.08 596.22Z" stroke="#4EC2DD" stroke-width="13" stroke-miterlimit="10" stroke-linecap="round" stroke-linejoin="round"/>
<path d="M564.783 584.087H503.25" stroke="#4EC2DD" stroke-width="13" stroke-miterlimit="10" stroke-linecap="round" stroke-linejoin="round"/>
<path d="M783.616 584.087C783.616 584.087 835.182 564.153 841.682 584.087" stroke="#4EC2DD" stroke-width="13" stroke-miterlimit="10" stroke-linecap="round" stroke-linejoin="round"/>
<path d="M467.544 705.467V779.134" stroke="#FFDE55" stroke-width="13" stroke-miterlimit="10" stroke-linecap="round" stroke-linejoin="round"/>
<path d="M526.044 877.933C514.344 889.633 498.311 897 480.111 897C445.011 897 415.978 868.4 415.978 832.867C415.978 797.767 444.578 768.734 480.111 768.734C497.878 768.734 514.344 776.1 526.044 787.8C518.244 783.467 509.578 780.867 500.044 780.867C471.444 780.867 448.044 804.267 448.044 832.867C448.044 861.467 471.444 884.867 500.044 884.867C509.578 885.3 518.244 882.7 526.044 877.933Z" fill="#FFDE55"/>
<path d="M467.544 858.867C481.664 858.867 493.111 847.42 493.111 833.3C493.111 819.18 481.664 807.734 467.544 807.734C453.424 807.734 441.978 819.18 441.978 833.3C441.978 847.42 453.424 858.867 467.544 858.867Z" fill="#FF6B57"/>
<path d="M961.978 788.667C954.178 784.334 945.511 781.734 935.978 781.734C929.045 781.734 922.978 783.034 916.911 785.634C917.778 780.434 919.078 775.234 919.511 770.034C936.411 770.467 951.145 777.4 961.978 788.667Z" fill="#FFDE55"/>
<path d="M962.411 877.934C950.711 889.633 934.677 897 916.477 897C898.277 897 881.377 889.2 869.677 876.634C876.611 868.834 882.677 861.034 888.311 853.234C896.111 871.867 914.744 884.433 935.977 884.433C945.511 885.3 954.611 882.7 962.411 877.934Z" fill="#FFDE55"/>
<path d="M929.478 833.301C929.478 847.601 918.211 858.867 903.911 858.867C898.278 858.867 893.078 857.134 888.745 853.667C898.711 838.934 906.078 823.767 910.845 809.034C921.245 811.634 929.478 821.601 929.478 833.301Z" fill="#FF6B57"/>
</g>
</svg>
