<svg width="400" height="385" viewBox="0 0 400 385" fill="none" xmlns="http://www.w3.org/2000/svg">
<path d="M156.096 58.868C155.072 59.892 164.032 77.3 165.568 77.3C167.488 77.3 166.976 75.252 162.624 66.42C158.528 58.356 157.76 57.332 156.096 58.868ZM125.248 61.556C124.352 62.452 154.944 93.94 156.736 93.94C159.808 93.94 156.224 89.204 142.784 75.764C134.464 67.444 127.424 60.66 126.912 60.66C126.528 60.66 125.76 61.044 125.248 61.556ZM260.288 70.26C256.448 75.124 254.4 78.836 255.168 79.348C255.936 79.732 256.576 79.86 256.832 79.732C256.96 79.476 259.776 76.02 263.104 72.052C268.864 65.14 270.4 61.94 267.968 61.94C267.328 61.94 263.872 65.652 260.288 70.26ZM222.4 70.9C222.016 71.54 222.528 72.18 223.552 72.18C224.576 72.18 225.728 72.692 226.24 73.332C226.624 74.1 224.32 74.612 220.608 74.484C214.08 74.484 210.112 75.892 205.76 79.988C203.456 82.036 202.432 82.164 198.592 81.012C188.736 77.94 179.776 86.26 181.312 97.012C182.08 101.876 181.952 102.132 180.16 99.828C177.728 96.628 177.728 91.252 180.16 88.052C183.232 84.084 182.592 81.396 179.264 84.596C177.216 86.644 176.448 89.076 176.448 93.556C176.32 98.932 176.704 99.828 180.416 102.26L184.512 105.076L179.264 106.612C176.448 107.508 171.712 110.324 168.896 113.012C165.952 115.7 162.368 118.26 160.832 118.772C157.248 119.796 154.816 125.3 156.48 128.372C157.76 130.932 156.992 132.34 154.176 132.34C150.72 132.34 145.088 137.588 141.248 144.372C136.64 152.308 136.256 156.404 139.84 160.884L142.4 164.084L139.2 164.852C136.512 165.492 132.032 170.74 130.624 174.836C130.368 175.348 121.28 176.372 110.272 177.14C88.5121 178.548 80.7041 180.34 73.4081 185.332C63.5521 192.244 61.2481 200.82 59.2001 240.756C58.5601 253.94 57.9201 271.604 57.9201 279.796V294.9L51.2641 295.028C47.5521 295.156 41.2801 295.54 37.4401 296.18C30.7841 297.076 39.4881 297.588 69.0561 297.972C72.6401 298.1 73.6641 298.868 76.3521 303.86C83.3921 317.044 89.5361 321.908 102.08 323.828C107.84 324.724 108.096 324.852 104.64 325.62C101.056 326.26 100.8 326.644 101.056 331.508L101.44 336.628L96.5761 336.116C94.0161 335.86 87.8721 336.244 82.8801 336.884C76.9921 337.652 122.432 338.036 213.44 338.036C290.24 338.036 349.504 337.652 345.28 337.14C341.056 336.628 329.28 336.116 319.04 335.988L300.352 335.86L300.864 330.74C301.376 325.876 301.248 325.62 297.792 325.492C294.208 325.364 294.208 325.364 298.56 324.084C300.992 323.444 305.216 322.292 307.776 321.652C313.152 320.244 319.04 314.1 324.288 304.244L327.616 298.1L342.848 297.46C351.168 296.948 356.032 296.564 353.344 296.436L348.736 296.18L347.968 286.836C347.584 281.844 346.432 261.236 345.536 241.14C343.616 201.588 342.976 198.132 335.168 189.044C328.128 180.724 317.504 178.164 283.072 176.372L266.816 175.604L266.048 171.892C265.664 169.844 263.872 166.9 262.08 165.364C258.368 162.164 257.984 157.812 260.928 150.772C263.872 143.604 262.336 135.54 256.96 130.164C254.4 127.604 251.456 125.94 249.408 125.94C246.464 125.94 246.08 125.428 246.08 121.716C246.08 116.98 242.88 113.14 238.912 113.14C236.352 113.14 233.28 110.964 233.28 109.044C233.28 108.532 234.688 108.02 236.48 108.02C240.448 108.02 242.88 103.924 240.96 100.468C240.32 99.06 239.68 95.476 239.68 92.404C239.68 86.9 237.888 83.316 232.384 77.172C230.72 75.508 228.544 73.076 227.52 71.796C225.344 69.364 223.552 68.98 222.4 70.9ZM231.616 84.852C235.328 90.356 235.456 97.268 231.744 104.692C228.672 111.22 229.312 112.756 236.48 117.108C238.528 118.388 240.96 121.332 241.728 123.636C242.624 126.58 244.8 128.756 248.512 130.932C252.096 132.852 254.656 135.54 255.936 138.484C257.6 142.452 257.472 143.732 255.04 151.668C253.632 156.532 251.84 160.5 251.2 160.5C250.432 160.5 249.92 159.86 249.92 159.092C249.92 156.02 245.696 148.98 242.496 146.932C239.936 145.268 236.864 144.756 231.104 144.884C221.504 145.268 218.048 143.732 210.496 135.668C207.424 132.468 204.352 129.78 203.584 129.78C202.944 129.78 199.744 131.956 196.416 134.772C193.088 137.46 188.992 140.404 187.456 141.3C184.384 142.836 170.304 143.348 168.128 141.94C166.208 140.788 159.68 147.188 156.352 153.332C154.688 156.66 152.896 159.22 152.256 159.22C150.72 159.22 146.24 151.156 146.24 148.212C146.24 145.268 150.976 139.764 156.992 135.796C158.784 134.516 161.728 130.676 163.52 127.348C166.848 120.564 171.968 115.7 179.648 111.86C185.92 108.66 186.944 106.612 186.176 98.932C185.792 94.452 186.176 91.764 187.84 89.332C189.888 86.26 190.528 86.004 196.672 86.644C202.176 87.156 204.096 86.644 209.6 83.572C214.72 80.628 217.28 79.86 222.4 80.116C228.032 80.5 229.056 81.012 231.616 84.852ZM212.16 144.628C215.232 145.908 214.336 147.956 211.264 146.932C205.248 145.14 200.512 138.484 202.048 134.26C202.688 132.852 203.84 133.876 206.528 138.1C208.576 141.3 211.136 144.244 212.16 144.628ZM201.28 141.94C201.28 145.268 207.936 149.236 212.8 148.596C215.232 148.34 219.328 148.98 221.76 150.004C225.088 151.412 227.136 151.54 230.72 150.388C239.68 147.7 244.8 152.436 244.8 163.444C244.8 166.644 245.568 169.716 246.464 170.612C248.512 172.276 249.92 171.252 249.92 167.924C249.92 164.724 257.728 164.724 260.544 167.924C265.152 173.044 264.384 184.18 259.008 191.22L256.448 194.42L252.864 190.964C245.44 183.796 230.848 180.084 230.72 185.204C230.72 185.972 228.672 188.148 226.368 189.94C221.376 193.652 217.664 199.412 218.816 202.228C219.2 203.252 221.76 205.3 224.576 206.708C229.312 209.14 229.568 209.524 227.392 210.932C219.072 216.564 203.584 219.124 191.68 216.948C181.824 215.156 173.12 211.828 173.12 209.908C173.12 209.012 175.424 207.348 178.24 206.068C181.056 204.788 183.36 203.124 183.36 202.1C183.36 196.852 170.304 180.98 165.952 180.98C161.728 180.98 154.944 183.54 150.464 186.868C145.6 190.58 143.68 190.708 143.68 187.508C143.68 185.972 144.832 184.82 146.88 184.308C150.848 183.284 151.232 178.548 147.52 175.22C143.168 171.252 137.792 176.116 140.992 181.108C141.76 182.516 142.016 185.076 141.632 186.868C140.992 189.428 141.376 190.196 143.552 190.836C145.088 191.22 146.112 192.116 145.856 192.884C144.96 195.828 142.144 195.06 137.92 190.836C134.08 186.996 133.44 185.46 133.44 180.468C133.44 172.148 138.176 166.9 146.752 166.004C152.896 165.236 153.024 165.236 152.256 168.436C151.744 170.228 151.744 172.02 152.256 172.532C153.664 173.94 157.76 169.204 157.76 166.004C157.76 164.34 159.296 161.652 161.088 159.988C163.52 157.94 164.672 155.636 164.8 152.052C165.184 147.572 165.568 147.06 168.128 147.444C181.056 149.364 192.448 146.676 197.312 140.788C199.232 138.612 201.28 139.124 201.28 141.94ZM146.24 159.86C149.056 163.188 146.368 163.7 143.04 160.5C141.12 158.708 139.84 156.02 139.84 154.1C139.84 148.852 141.376 148.468 143.168 153.46C143.936 155.892 145.344 158.836 146.24 159.86ZM160.96 157.428C158.016 162.036 156.992 160.244 159.808 155.38C161.088 153.204 162.368 152.052 162.624 152.82C162.88 153.588 162.112 155.636 160.96 157.428ZM147.264 179.572C147.648 182.004 147.264 182.388 145.6 181.748C144.448 181.364 143.168 180.98 142.912 180.98C142.656 180.98 142.4 179.828 142.4 178.292C142.4 174.58 146.752 175.604 147.264 179.572ZM130.88 183.796C130.88 189.3 135.232 194.548 141.76 196.852C146.496 198.644 146.624 198.772 143.296 198.772C137.664 198.9 131.392 202.484 127.552 207.604C119.872 217.716 107.456 229.62 104.384 229.62C100.032 229.62 96.3201 233.972 96.3201 239.348C96.3201 243.06 94.7841 245.62 86.7201 254.964C73.7921 269.812 70.2081 277.108 70.9761 287.22L71.4881 294.9H60.4801L61.1201 278.516C61.5041 269.556 62.0161 253.94 62.4001 243.7C63.2961 220.532 65.2161 202.1 67.5201 196.724C69.4401 192.244 77.6321 185.716 84.1601 183.54C89.6641 181.748 105.664 180.084 119.744 179.828L130.88 179.7V183.796ZM303.808 180.852C319.296 182.516 324.8 184.308 330.432 189.428C340.288 198.26 341.056 202.996 344.128 274.676L345.024 294.9H336.448C330.816 294.9 328.128 294.388 328.64 293.62C329.152 292.852 329.408 288.756 329.408 284.404C329.408 274.292 325.568 266.612 314.176 253.684C306.496 245.108 305.472 243.316 305.984 239.604C306.496 234.356 302.528 229.62 297.536 229.62C294.72 229.62 291.776 226.932 282.56 216.564C270.144 202.612 265.408 198.9 259.904 198.9C257.856 198.9 256.32 198.644 256.32 198.26C256.32 197.876 258.368 195.572 260.8 193.14C263.36 190.58 265.536 186.868 266.048 184.18L266.816 179.7H279.872C286.912 179.7 297.792 180.212 303.808 180.852ZM168.128 185.332C168.128 186.1 165.44 187.252 162.24 188.148C156.224 189.556 151.488 193.012 153.024 194.548C153.408 195.06 155.2 194.42 156.992 193.396C161.216 190.58 170.56 188.532 172.992 189.94C174.528 190.836 174.144 191.22 171.2 191.86C163.904 193.524 159.04 195.188 158.272 196.468C156.864 198.772 158.784 199.156 162.496 197.236C167.36 194.676 176.448 193.268 177.472 194.804C177.856 195.572 176.448 196.468 174.144 196.98C167.872 198.132 162.88 200.308 162.88 201.716C162.88 202.484 164.16 202.612 165.824 202.1C177.216 198.644 185.664 199.54 176.704 203.38C174.016 204.404 171.456 205.3 170.816 205.3C170.176 205.3 169.792 210.676 169.792 217.076L169.92 228.98L156.736 229.364L143.424 229.748L147.648 222.452L151.744 215.156L150.208 205.428C148.288 192.244 148.288 191.604 152 189.172C158.784 184.692 168.128 182.516 168.128 185.332ZM245.696 189.172C251.2 191.988 253.888 195.956 252.608 199.412C251.968 200.82 251.2 205.556 250.688 209.908C249.92 217.076 250.048 217.972 253.76 222.964C255.808 225.908 257.6 228.596 257.6 228.98C257.6 229.364 251.84 229.62 244.928 229.62H232.128L231.36 224.116C230.848 221.172 231.104 216.308 231.744 213.236L233.024 207.732L227.392 204.916C224.32 203.508 221.76 201.46 221.76 200.564C221.76 198.26 223.424 198.516 230.848 201.588C236.992 204.276 239.552 204.276 237.888 201.588C237.504 200.948 234.176 199.412 230.72 198.26C227.136 197.108 224.576 195.572 224.96 195.06C225.856 193.524 236.736 196.852 239.552 199.412C242.24 201.844 243.52 201.972 243.52 199.796C243.52 198.004 233.28 192.5 229.952 192.5C228.928 192.5 228.416 191.86 228.928 191.092C230.08 189.044 236.224 190.58 242.368 194.42C245.184 196.34 247.872 197.492 248.256 197.108C249.664 195.7 245.952 192.756 239.552 190.068C236.096 188.532 233.536 186.74 233.92 186.1C234.688 184.82 240.064 186.228 245.696 189.172ZM147.776 208.116C148.16 213.876 147.648 216.052 144.32 221.94L140.352 228.98L125.76 229.364L111.04 229.748L115.008 226.164C117.184 224.244 122.432 218.612 126.528 213.748C133.952 205.044 139.072 201.588 144.576 201.46C146.88 201.46 147.392 202.228 147.776 208.116ZM264.512 203.38C266.816 204.532 273.344 210.804 279.232 217.46L289.728 229.62H261.44L257.6 223.476C255.04 219.38 253.76 215.796 253.76 212.34C253.76 201.332 256.064 199.412 264.512 203.38ZM228.544 222.836L229.056 229.62H173.248L174.016 222.836C174.4 219.252 174.912 216.052 175.04 215.796C175.168 215.668 177.088 216.18 179.264 216.948C181.824 217.844 183.36 219.252 183.616 221.044C184.256 225.268 192.064 227.444 204.608 226.676C216.512 226.036 220.48 224.372 220.48 220.276C220.48 218.228 221.504 216.948 224.064 216.052C228.032 214.644 227.776 214.132 228.544 222.836ZM301.12 234.1C303.168 236.532 302.784 241.268 296.64 288.372C294.208 307.7 292.16 323.956 292.16 324.596C292.16 325.108 251.328 325.62 201.28 325.62H110.4L109.888 322.676C109.504 321.14 107.2 302.324 104.64 280.82C102.08 259.316 99.6481 240.756 99.3921 239.604C99.0081 238.452 99.9041 236.276 101.312 234.868C104 232.18 104.896 232.18 201.792 232.18C287.808 232.18 299.712 232.436 301.12 234.1ZM92.4801 256.244C87.3601 261.876 82.7521 269.3 84.0321 269.3C84.4161 269.3 87.6161 265.46 91.0721 260.852C95.0401 255.732 97.7281 253.044 98.1121 254.068C98.3681 255.092 100.16 268.788 102.08 284.66C103.872 300.532 105.664 315.38 106.176 317.556C106.816 321.78 106.816 321.78 102.592 321.012C92.6081 319.092 87.6161 315.892 82.2401 307.572C69.1841 287.476 70.8481 277.748 91.0721 254.196C94.2721 250.484 97.0881 248.052 97.3441 248.82C97.6001 249.46 95.4241 252.788 92.4801 256.244ZM322.88 271.092C328.896 282.996 328 291.956 319.168 306.548C313.792 315.38 309.952 318.324 301.504 320.244C297.024 321.268 296 321.14 296 319.604C296 317.428 303.424 258.932 304.448 252.66L305.216 248.18L312.128 255.86C315.968 260.084 320.704 266.996 322.88 271.092ZM298.176 329.972C298.56 330.228 298.432 331.764 297.92 333.172L297.152 335.86L200.896 335.604L104.64 335.22L104.256 332.02L103.872 328.82L200.768 329.076C254.016 329.204 297.92 329.588 298.176 329.972Z" fill="#020618"/>
<path d="M178.752 155.892C177.472 156.916 176.704 158.196 177.216 158.708C177.728 159.22 179.008 158.836 180.16 157.94C181.568 156.66 182.464 156.66 183.872 157.812C185.024 158.836 185.92 158.836 186.432 158.068C186.944 157.3 186.176 156.148 184.768 155.508C181.568 153.716 181.824 153.716 178.752 155.892ZM210.752 155.892C209.472 156.916 208.704 158.196 209.216 158.708C209.728 159.22 211.008 158.836 212.032 158.068C213.44 156.916 214.592 156.788 216.512 157.94C218.176 158.836 219.2 158.836 219.2 158.068C219.2 156.916 215.232 154.1 213.824 154.1C213.568 154.1 212.16 154.868 210.752 155.892ZM178.496 170.356C178.752 174.196 179.392 175.22 181.44 175.22C184.512 175.22 185.664 170.356 183.36 167.412C180.288 163.828 178.112 165.236 178.496 170.356ZM197.184 166.9C193.728 176.372 193.472 178.292 195.648 181.62C198.08 185.332 198.08 185.332 201.408 183.54C204.352 181.876 204.736 179.06 201.792 180.212C198.464 181.492 195.904 178.676 197.568 175.604C198.336 174.324 198.72 171.38 198.464 169.076C198.208 166.644 197.696 165.748 197.184 166.9ZM212.8 167.54C210.496 170.356 212.16 175.86 215.488 175.86C217.664 175.86 218.048 175.22 217.664 171.124C217.28 166.004 215.36 164.468 212.8 167.54ZM251.072 175.092C249.536 178.548 250.432 186.74 252.608 188.148C254.912 189.556 257.728 186.1 256.32 183.54C255.552 182.004 255.424 180.852 256.32 180.34C256.96 179.956 257.344 177.908 257.216 175.86C256.832 171.124 253.12 170.612 251.072 175.092ZM187.584 193.14C183.616 196.596 185.92 197.62 190.272 194.42C193.344 192.116 199.872 191.988 204.352 193.908C206.144 194.804 208.448 197.364 209.6 199.796C211.136 202.868 212.16 203.892 213.056 202.996C214.848 201.204 210.88 194.676 206.4 191.988C200.896 188.788 191.936 189.3 187.584 193.14ZM196.928 273.908C192.832 278.132 192.448 284.148 196.16 288.884C204.224 299.124 220.736 288.756 214.72 277.108C211.008 269.812 202.688 268.276 196.928 273.908ZM209.984 275.188C213.312 277.492 213.824 284.66 210.752 287.732C208.192 290.42 201.408 290.292 198.464 287.604C195.264 284.788 195.52 278.9 198.976 275.7C202.304 272.628 206.144 272.372 209.984 275.188ZM308.672 257.78C310.976 260.98 314.304 265.716 316.096 268.404C317.888 270.964 319.68 272.884 320.064 272.5C320.96 271.604 312.128 258.932 307.904 255.092C304.832 252.276 304.832 252.532 308.672 257.78ZM152.896 74.1C152 75.252 151.872 76.02 152.64 76.02C153.28 76.02 153.92 77.044 153.92 78.196C154.048 80.372 154.176 80.372 155.84 78.196C156.736 76.788 157.248 74.996 156.864 73.972C155.968 71.668 155.072 71.796 152.896 74.1ZM265.408 78.836C265.408 79.988 264.512 81.268 263.744 81.524C262.464 82.036 262.464 82.292 263.744 82.292C264.64 82.42 265.024 82.932 264.64 83.7C263.488 85.62 265.152 85.236 267.328 83.06C268.48 82.036 268.736 81.14 267.968 81.14C267.328 81.14 266.432 80.116 266.176 78.836C265.664 76.916 265.536 76.916 265.408 78.836ZM266.944 88.948C258.368 94.836 255.68 97.78 258.88 97.78C261.184 97.78 277.952 85.748 278.08 83.956C278.08 81.524 276.8 82.036 266.944 88.948ZM130.88 90.1C130.88 91.252 144.448 100.98 148.16 102.388C152.896 104.18 149.312 100.084 141.76 94.708C133.312 88.82 130.88 87.796 130.88 90.1ZM270.4 108.02C262.848 111.348 259.136 114.42 262.592 114.42C265.152 114.42 283.2 106.356 283.2 105.332C283.2 103.412 279.104 104.308 270.4 108.02ZM119.872 106.868C118.848 108.532 118.592 108.276 127.936 113.012C136.64 117.364 138.56 117.748 138.56 115.316C138.432 113.268 120.896 105.204 119.872 106.868ZM280.64 123.636C267.2 127.86 267.328 127.86 268.352 129.524C269.12 130.932 298.56 122.228 298.56 120.564C298.56 118.772 293.184 119.668 280.64 123.636ZM111.168 125.684C110.016 127.604 113.344 128.372 124.48 128.5C137.536 128.884 138.432 128.756 135.872 127.22C132.544 125.3 112.192 124.02 111.168 125.684ZM116.544 151.796C114.624 153.716 114.624 154.1 116.16 154.1C117.184 154.1 118.08 155.124 118.208 156.276C118.208 157.684 118.592 157.94 118.976 156.916C119.232 156.148 120.384 155.38 121.408 155.38C123.712 155.38 123.712 154.612 121.024 151.796C118.848 149.748 118.592 149.748 116.544 151.796ZM279.616 152.82C278.72 154.228 278.592 155.38 279.232 155.38C279.872 155.38 280.64 156.148 280.896 157.172C281.28 158.836 281.664 158.708 283.84 157.044C285.632 155.636 285.888 154.868 284.864 154.484C283.968 154.1 283.2 153.076 283.2 152.052C283.2 149.492 281.536 149.876 279.616 152.82ZM78.4 176.628L75.2 178.548L79.04 177.652C81.216 177.14 84.928 176.372 87.36 175.86L91.84 174.836H86.72C83.904 174.708 80.192 175.604 78.4 176.628ZM52.8 278.516C52.8 283.636 53.44 288.756 54.08 289.78C54.976 291.06 55.36 288.244 55.36 280.436C55.36 273.908 54.848 269.3 54.08 269.3C53.312 269.3 52.8 273.268 52.8 278.516ZM349.888 278.9C349.888 282.356 350.4 286.196 351.04 287.22C352.576 289.652 352.576 278.772 351.04 275.06C350.272 273.14 349.888 274.164 349.888 278.9ZM107.84 343.54C107.84 344.18 111.04 344.82 115.008 344.82C119.36 344.82 121.792 344.308 121.28 343.54C120.896 342.772 117.696 342.26 114.112 342.26C110.656 342.26 107.84 342.772 107.84 343.54ZM125.12 343.54C124.608 344.436 137.664 344.82 163.52 344.82C189.376 344.82 202.432 344.436 201.92 343.54C201.408 342.772 187.2 342.26 163.52 342.26C139.84 342.26 125.632 342.772 125.12 343.54Z" fill="#020618"/>
</svg>
